<svg xmlns="http://www.w3.org/2000/svg" width="1440" height="900"><path d="M646,510L848,748L874,523Z" fill="#e1ecf3" stroke="#e1ecf3" stroke-width="1.51"/><path d="M646,510L678,763L848,748Z" fill="#d9e8f1" stroke="#d9e8f1" stroke-width="1.51"/><path d="M848,748L1027,735L874,523Z" fill="#cbe1ee" stroke="#cbe1ee" stroke-width="1.51"/><path d="M912,938L1027,735L848,748Z" fill="#b0d2e6" stroke="#b0d2e6" stroke-width="1.51"/><path d="M678,763L912,938L848,748Z" fill="#b7d5e6" stroke="#b7d5e6" stroke-width="1.51"/><path d="M401,720L577,904L678,763Z" fill="#c8d2d9" stroke="#c8d2d9" stroke-width="1.51"/><path d="M577,904L912,938L678,763Z" fill="#b5d0e4" stroke="#b5d0e4" stroke-width="1.51"/><path d="M646,510L401,720L678,763Z" fill="#dee1e2" stroke="#dee1e2" stroke-width="1.51"/><path d="M646,510L401,502L401,720Z" fill="#ede2dc" stroke="#ede2dc" stroke-width="1.51"/><path d="M646,510L633,255L401,502Z" fill="#faebe2" stroke="#faebe2" stroke-width="1.51"/><path d="M874,523L633,255L646,510Z" fill="#f8f5f4" stroke="#f8f5f4" stroke-width="1.51"/><path d="M874,523L839,178L633,255Z" fill="#f5eae3" stroke="#f5eae3" stroke-width="1.51"/><path d="M1027,735L1089,383L874,523Z" fill="#d4e6f0" stroke="#d4e6f0" stroke-width="1.51"/><path d="M1027,735L1264,638L1089,383Z" fill="#bfdbea" stroke="#bfdbea" stroke-width="1.51"/><path d="M912,938L1035,978L1027,735Z" fill="#99c3dd" stroke="#99c3dd" stroke-width="1.51"/><path d="M916,1229L1035,978L912,938Z" fill="#89acd3" stroke="#89acd3" stroke-width="1.51"/><path d="M999,211L839,178L874,523Z" fill="#ede4df" stroke="#ede4df" stroke-width="1.51"/><path d="M577,904L674,1093L912,938Z" fill="#a3bfdb" stroke="#a3bfdb" stroke-width="1.51"/><path d="M401,720L423,940L577,904Z" fill="#bec3ca" stroke="#bec3ca" stroke-width="1.51"/><path d="M423,940L674,1093L577,904Z" fill="#a8b6cb" stroke="#a8b6cb" stroke-width="1.51"/><path d="M1089,383L999,211L874,523Z" fill="#e3e6e7" stroke="#e3e6e7" stroke-width="1.51"/><path d="M633,255L379,288L401,502Z" fill="#fcdfce" stroke="#fcdfce" stroke-width="1.51"/><path d="M401,502L185,458L401,720Z" fill="#efd2c5" stroke="#efd2c5" stroke-width="1.51"/><path d="M571,33L379,288L633,255Z" fill="#fbceb8" stroke="#fbceb8" stroke-width="1.51"/><path d="M1247,917L1264,638L1027,735Z" fill="#98c8e0" stroke="#98c8e0" stroke-width="1.51"/><path d="M1089,383L1278,281L999,211Z" fill="#d5d6d6" stroke="#d5d6d6" stroke-width="1.51"/><path d="M1035,978L1247,917L1027,735Z" fill="#8bbcda" stroke="#8bbcda" stroke-width="1.51"/><path d="M1153,1239L1247,917L1035,978Z" fill="#6ea1cc" stroke="#6ea1cc" stroke-width="1.51"/><path d="M379,288L185,458L401,502Z" fill="#fbd3c2" stroke="#fbd3c2" stroke-width="1.51"/><path d="M401,720L142,757L423,940Z" fill="#c9bbb9" stroke="#c9bbb9" stroke-width="1.51"/><path d="M839,178L571,33L633,255Z" fill="#fad1bf" stroke="#fad1bf" stroke-width="1.51"/><path d="M999,211L822,13L839,178Z" fill="#edcabc" stroke="#edcabc" stroke-width="1.51"/><path d="M379,288L179,258L185,458Z" fill="#fac4ab" stroke="#fac4ab" stroke-width="1.51"/><path d="M822,13L571,33L839,178Z" fill="#f5c4b3" stroke="#f5c4b3" stroke-width="1.51"/><path d="M999,211L1149,-74L822,13Z" fill="#e1b6ab" stroke="#e1b6ab" stroke-width="1.51"/><path d="M1387,429L1278,281L1089,383Z" fill="#c2d1db" stroke="#c2d1db" stroke-width="1.51"/><path d="M185,458L142,757L401,720Z" fill="#e4c2b6" stroke="#e4c2b6" stroke-width="1.51"/><path d="M674,1093L916,1229L912,938Z" fill="#91abd2" stroke="#91abd2" stroke-width="1.51"/><path d="M1570,695L1387,429L1264,638Z" fill="#98bfdc" stroke="#98bfdc" stroke-width="1.51"/><path d="M1264,638L1387,429L1089,383Z" fill="#bad6e7" stroke="#bad6e7" stroke-width="1.51"/><path d="M674,1093L336,1139L916,1229Z" fill="#969fc0" stroke="#969fc0" stroke-width="1.51"/><path d="M423,940L336,1139L674,1093Z" fill="#a4a6be" stroke="#a4a6be" stroke-width="1.51"/><path d="M136,971L336,1139L423,940Z" fill="#aa98a6" stroke="#aa98a6" stroke-width="1.51"/><path d="M-145,723L-38,960L142,757Z" fill="#bd8e8f" stroke="#bd8e8f" stroke-width="1.51"/><path d="M342,40L179,258L379,288Z" fill="#f8b899" stroke="#f8b899" stroke-width="1.51"/><path d="M142,757L136,971L423,940Z" fill="#b9a4a6" stroke="#b9a4a6" stroke-width="1.51"/><path d="M571,33L342,40L379,288Z" fill="#f9ba9d" stroke="#f9ba9d" stroke-width="1.51"/><path d="M164,18L342,40L357,-202Z" fill="#e7886d" stroke="#e7886d" stroke-width="1.51"/><path d="M916,1229L1153,1239L1035,978Z" fill="#7697c3" stroke="#7697c3" stroke-width="1.51"/><path d="M1257,-29L999,211L1278,281Z" fill="#cfbdb8" stroke="#cfbdb8" stroke-width="1.51"/><path d="M1257,-29L1149,-74L999,211Z" fill="#cfa9a3" stroke="#cfa9a3" stroke-width="1.51"/><path d="M822,13L650,-270L571,33Z" fill="#eca597" stroke="#eca597" stroke-width="1.51"/><path d="M1153,1239L1310,1217L1247,917Z" fill="#598ec0" stroke="#598ec0" stroke-width="1.51"/><path d="M1247,917L1570,695L1264,638Z" fill="#80b6d6" stroke="#80b6d6" stroke-width="1.51"/><path d="M1605,940L1570,695L1247,917Z" fill="#5b9dc9" stroke="#5b9dc9" stroke-width="1.51"/><path d="M1583,129L1257,-29L1278,281Z" fill="#b7a4a9" stroke="#b7a4a9" stroke-width="1.51"/><path d="M1583,129L1278,281L1387,429Z" fill="#afb7c6" stroke="#afb7c6" stroke-width="1.51"/><path d="M1570,695L1592,524L1387,429Z" fill="#94b6d7" stroke="#94b6d7" stroke-width="1.51"/><path d="M342,40L164,18L179,258Z" fill="#f2a07e" stroke="#f2a07e" stroke-width="1.51"/><path d="M-145,723L142,757L185,458Z" fill="#dca9a0" stroke="#dca9a0" stroke-width="1.51"/><path d="M357,-202L342,40L571,33Z" fill="#ec9880" stroke="#ec9880" stroke-width="1.51"/><path d="M1149,-74L1021,-181L822,13Z" fill="#d79c96" stroke="#d79c96" stroke-width="1.51"/><path d="M1367,-319L1021,-181L1149,-74Z" fill="#ba7f82" stroke="#ba7f82" stroke-width="1.51"/><path d="M142,757L-38,960L136,971Z" fill="#b38e93" stroke="#b38e93" stroke-width="1.51"/><path d="M136,971L75,1232L336,1139Z" fill="#a07c91" stroke="#a07c91" stroke-width="1.51"/><path d="M-145,723L185,458L-155,418Z" fill="#e3a399" stroke="#e3a399" stroke-width="1.51"/><path d="M823,-306L650,-270L822,13Z" fill="#df948d" stroke="#df948d" stroke-width="1.51"/><path d="M-155,418L185,458L179,258Z" fill="#f1af9c" stroke="#f1af9c" stroke-width="1.51"/><path d="M1310,1217L1605,940L1247,917Z" fill="#458dc0" stroke="#458dc0" stroke-width="1.51"/><path d="M1570,695L1767,657L1592,524Z" fill="#84a5cf" stroke="#84a5cf" stroke-width="1.51"/><path d="M336,1139L75,1232L916,1229Z" fill="#958aa0" stroke="#958aa0" stroke-width="1.51"/><path d="M916,1229L75,1232L1153,1239Z" fill="#8a94b4" stroke="#8a94b4" stroke-width="1.51"/><path d="M-61,1171L75,1232L136,971Z" fill="#996880" stroke="#996880" stroke-width="1.51"/><path d="M-61,1171L136,971L-38,960Z" fill="#9f7183" stroke="#9f7183" stroke-width="1.51"/><path d="M650,-270L357,-202L571,33Z" fill="#e59080" stroke="#e59080" stroke-width="1.51"/><path d="M1021,-181L823,-306L822,13Z" fill="#d9948f" stroke="#d9948f" stroke-width="1.51"/><path d="M-163,151L-155,418L179,258Z" fill="#ea9681" stroke="#ea9681" stroke-width="1.51"/><path d="M1257,-29L1367,-319L1149,-74Z" fill="#b58085" stroke="#b58085" stroke-width="1.51"/><path d="M1021,-181L1367,-319L823,-306Z" fill="#b57c80" stroke="#b57c80" stroke-width="1.51"/><path d="M1592,524L1583,129L1387,429Z" fill="#a5b3cc" stroke="#a5b3cc" stroke-width="1.51"/><path d="M1787,176L1583,129L1592,524Z" fill="#a19eba" stroke="#a19eba" stroke-width="1.51"/><path d="M-346,1119L-61,1171L-38,960Z" fill="#925872" stroke="#925872" stroke-width="1.51"/><path d="M1153,1239L1590,1179L1310,1217Z" fill="#3d73a5" stroke="#3d73a5" stroke-width="1.51"/><path d="M1310,1217L1590,1179L1605,940Z" fill="#2f75b4" stroke="#2f75b4" stroke-width="1.51"/><path d="M1787,874L1570,695L1605,940Z" fill="#558dc1" stroke="#558dc1" stroke-width="1.51"/><path d="M1787,874L1767,657L1570,695Z" fill="#6892c0" stroke="#6892c0" stroke-width="1.51"/><path d="M1583,129L1587,16L1257,-29Z" fill="#a98894" stroke="#a98894" stroke-width="1.51"/><path d="M1787,176L1587,16L1583,129Z" fill="#a28498" stroke="#a28498" stroke-width="1.51"/><path d="M-108,-92L-163,151L164,18Z" fill="#da6a55" stroke="#da6a55" stroke-width="1.51"/><path d="M164,18L-163,151L179,258Z" fill="#ea8e72" stroke="#ea8e72" stroke-width="1.51"/><path d="M-145,723L-300,855L-38,960Z" fill="#af7980" stroke="#af7980" stroke-width="1.51"/><path d="M-155,418L-284,734L-145,723Z" fill="#d08b8a" stroke="#d08b8a" stroke-width="1.51"/><path d="M-370,413L-284,734L-155,418Z" fill="#d18a87" stroke="#d18a87" stroke-width="1.51"/><path d="M1744,1108L1787,874L1605,940Z" fill="#2f74ae" stroke="#2f74ae" stroke-width="1.51"/><path d="M-284,734L-300,855L-145,723Z" fill="#b57a7f" stroke="#b57a7f" stroke-width="1.51"/><path d="M357,-202L58,-213L164,18Z" fill="#da6d58" stroke="#da6d58" stroke-width="1.51"/><path d="M-145,-286L58,-213L357,-202Z" fill="#c64d43" stroke="#c64d43" stroke-width="1.51"/><path d="M-145,-286L357,-202L650,-270Z" fill="#cd6858" stroke="#cd6858" stroke-width="1.51"/><path d="M1787,874L1844,519L1767,657Z" fill="#6d8cb5" stroke="#6d8cb5" stroke-width="1.51"/><path d="M1767,657L1844,519L1592,524Z" fill="#859cc4" stroke="#859cc4" stroke-width="1.51"/><path d="M1590,1179L1744,1108L1605,940Z" fill="#286db0" stroke="#286db0" stroke-width="1.51"/><path d="M58,-213L-108,-92L164,18Z" fill="#d35c4b" stroke="#d35c4b" stroke-width="1.51"/><path d="M1581,-194L1367,-319L1257,-29Z" fill="#a06b79" stroke="#a06b79" stroke-width="1.51"/><path d="M1587,16L1581,-194L1257,-29Z" fill="#a37583" stroke="#a37583" stroke-width="1.51"/><path d="M1844,519L1787,176L1592,524Z" fill="#949ebf" stroke="#949ebf" stroke-width="1.51"/><path d="M-163,151L-269,145L-155,418Z" fill="#de7f6d" stroke="#de7f6d" stroke-width="1.51"/><path d="M-284,734L-370,413L-300,855Z" fill="#b87e82" stroke="#b87e82" stroke-width="1.51"/><path d="M-340,0L-269,145L-163,151Z" fill="#ce6151" stroke="#ce6151" stroke-width="1.51"/><path d="M-269,145L-370,413L-155,418Z" fill="#d88378" stroke="#d88378" stroke-width="1.51"/><path d="M1765,-86L1581,-194L1587,16Z" fill="#976079" stroke="#976079" stroke-width="1.51"/><path d="M-370,413L-346,1119L-300,855Z" fill="#a0717b" stroke="#a0717b" stroke-width="1.51"/><path d="M-300,855L-346,1119L-38,960Z" fill="#975f72" stroke="#975f72" stroke-width="1.51"/><path d="M-61,1171L-346,1119L75,1232Z" fill="#894d66" stroke="#894d66" stroke-width="1.51"/><path d="M1787,176L1765,-86L1587,16Z" fill="#996f84" stroke="#996f84" stroke-width="1.51"/><path d="M1844,519L1765,-86L1787,176Z" fill="#958195" stroke="#958195" stroke-width="1.51"/><path d="M-145,-286L-340,0L-108,-92Z" fill="#be3535" stroke="#be3535" stroke-width="1.51"/><path d="M-108,-92L-340,0L-163,151Z" fill="#cd5447" stroke="#cd5447" stroke-width="1.51"/><path d="M-269,145L-340,0L-370,413Z" fill="#c86c5e" stroke="#c86c5e" stroke-width="1.51"/><path d="M58,-213L-145,-286L-108,-92Z" fill="#c13a38" stroke="#c13a38" stroke-width="1.51"/><path d="M823,-306L-145,-286L650,-270Z" fill="#ca776c" stroke="#ca776c" stroke-width="1.51"/><path d="M-390,-319L-145,-286L823,-306Z" fill="#b54841" stroke="#b54841" stroke-width="1.51"/><path d="M1844,519L1759,-185L1765,-86Z" fill="#946f80" stroke="#946f80" stroke-width="1.51"/><path d="M1765,-86L1759,-185L1581,-194Z" fill="#8d506c" stroke="#8d506c" stroke-width="1.51"/><path d="M1581,-194L1759,-185L1367,-319Z" fill="#8c536d" stroke="#8c536d" stroke-width="1.51"/><path d="M-145,-286L-390,-319L-340,0Z" fill="#a9192b" stroke="#a9192b" stroke-width="1.51"/><path d="M-340,0L-390,-319L-370,413Z" fill="#b54b43" stroke="#b54b43" stroke-width="1.51"/><path d="M1367,-319L-390,-319L823,-306Z" fill="#c57f7b" stroke="#c57f7b" stroke-width="1.51"/></svg>